<?xml version="1.0" encoding="UTF-8"?>
<svg width="242px" height="48px" viewBox="0 0 242 48" version="1.1" xmlns="http://www.w3.org/2000/svg" xmlns:xlink="http://www.w3.org/1999/xlink">
    <!-- Generator: Sketch 52.3 (67297) - http://www.bohemiancoding.com/sketch -->
    <title>logo</title>
    <desc>Created with Sketch.</desc>
    <g id="Page-1" stroke="none" stroke-width="1" fill="none" fill-rule="evenodd">
        <g id="home" transform="translate(-30.000000, -30.000000)" fill="#FFFFFF">
            <g id="header">
                <g id="logo" transform="translate(30.000000, 30.000000)">
                    <path d="M228.268328,23.1714055 L237.56938,12.9448965 C238.72272,11.6783741 238.563476,9.7052553 237.221867,8.6381345 L233.659278,5.6480871 C232.424551,4.6661173 230.634431,4.8159126 229.581893,5.9896673 L208.949627,28.7310188 C208.949627,28.7310188 207.262271,30.2559234 206.10893,31.247463 C204.955786,32.2388073 202.863848,32.9270455 200.929782,32.9270455 C195.887128,32.9270455 191.81994,28.6886386 192.13176,23.6010661 C192.410436,19.054866 196.223854,15.4427872 200.796817,15.3715026 C204.347051,15.3162326 206.633532,17.291695 208.095947,18.8964775 C208.78097,19.6481883 209.958825,19.6688901 210.666989,18.9388576 L215.464697,13.7948434 C216.142464,13.0956683 216.119519,11.9810896 215.413708,11.3100378 C212.043506,8.105746 208.83039,5.2975231 200.929782,5.2975231 C190.243583,5.2975231 181.597353,14.1612267 182.014485,24.8935634 C182.395533,34.6896306 190.376548,42.6237048 200.213969,42.986768 C205.873987,43.1957393 211.013913,40.9152179 214.615724,37.1595933 L214.623765,37.1650617 L220.990966,30.8092092 L233.809501,41.6688817 C235.058152,42.7123711 236.917696,42.5612087 237.98004,41.3300357 L241.281014,38.0521156 C242.392583,36.7639149 242.191763,34.8109121 240.841329,33.7734769 L228.268328,23.1714055 Z" id="CX-logo" opacity="0.5"></path>
                    <path d="M163.45,5.29 C163.45,5.29 163.45,5.29 163.45,5.35 L163.54,5.35 L163.64,5.35 L163.74,5.35 C163.764111,5.33760447 163.782156,5.31595077 163.79,5.29 C163.805008,5.25486908 163.805008,5.21513092 163.79,5.18 L163.79,4.4 C163.782885,4.36031636 163.782885,4.31968364 163.79,4.28 C163.807778,4.26666667 163.832222,4.26666667 163.85,4.28 L163.94,4.28 L164.1,4.28 C164.129382,4.2713887 164.160618,4.2713887 164.19,4.28 C164.239274,4.31086172 164.27772,4.35629703 164.3,4.41 L164.4,4.56 L164.78,5.16 C164.809149,5.19631164 164.83274,5.23675332 164.85,5.28 C164.874727,5.31484656 164.905153,5.34527327 164.94,5.37 L164.99,5.37 L165.05,5.37 C165.085946,5.38028154 165.124054,5.38028154 165.16,5.37 L165.26,5.37 C165.27965,5.33596588 165.27965,5.29403412 165.26,5.26 C165.263765,5.23011811 165.263765,5.19988189 165.26,5.17 L165.2,5.08 L164.83,4.51 L164.78,4.43 L164.78,4.35 C164.78,4.35 164.78,4.35 164.78,4.35 C164.78,4.35 164.78,4.35 164.78,4.35 C164.787443,4.32128936 164.805255,4.2963524 164.83,4.28 C164.856395,4.27461224 164.883605,4.27461224 164.91,4.28 L165,4.28 L165.08,4.28 C165.146681,4.2346937 165.207188,4.18090951 165.26,4.12 C165.315825,4.05647648 165.356815,3.98132717 165.38,3.9 C165.384483,3.85678261 165.384483,3.81321739 165.38,3.77 C165.390333,3.72390537 165.390333,3.67609463 165.38,3.63 L165.38,3.57 L165.38,3.46 C165.353419,3.35354519 165.309498,3.25219078 165.25,3.16 C165.215476,3.11655774 165.170844,3.08222555 165.12,3.06 C165.009894,2.97691227 164.877694,2.928207 164.74,2.92 L164.24,2.92 L163.54,2.92 C163.505873,2.92740687 163.476666,2.94931232 163.46,2.98 C163.46,2.98 163.46,3.03 163.46,3.07 L163.46,5.23 C163.46,5.23 163.46,5.29 163.46,5.32 C163.454322,5.34636446 163.454322,5.37363554 163.46,5.4 L163.45,5.29 Z M163.85,3.39 C163.844479,3.36699321 163.844479,3.34300679 163.85,3.32 L163.85,3.25 C163.845277,3.23366787 163.845277,3.21633213 163.85,3.2 C163.85,3.2 163.85,3.2 163.85,3.2 C163.873327,3.1691631 163.90437,3.1450189 163.94,3.13 L164.29,3.13 C164.383048,3.11967984 164.476952,3.11967984 164.57,3.13 C164.645849,3.13925515 164.719954,3.15946564 164.79,3.19 C164.85171,3.22802311 164.900505,3.2837888 164.93,3.35 C164.93862,3.39290468 164.93862,3.43709532 164.93,3.48 C164.940253,3.5328406 164.940253,3.5871594 164.93,3.64 C164.913595,3.69787509 164.886457,3.75215079 164.85,3.8 C164.82069,3.84062343 164.783225,3.87468284 164.74,3.9 L164.57,3.95 L164.37,3.95 L164,3.95 C163.946196,3.95492017 163.893543,3.93235459 163.86,3.89 C163.840764,3.82812724 163.840764,3.76187276 163.86,3.7 L163.86,3.39 L163.85,3.39 Z M29.08,16.7 L28.94,16.7 C20.17,16.7 18.24,24.03 18.24,27.47 C18.1854985,29.2185923 18.5095632,30.958308 19.19,32.57 C20.59,35.63 23.53,38.67 29.08,38.67 C34.63,38.67 39.93,35.2 39.93,27.57 C39.93,27.57 39.93,27.57 39.93,27.51 C40.07,24 37.72,16.7 29.08,16.7 Z M28.89,34.42 C26.64,34.42 23.89,32.6 23.89,27.72 C23.89,22.84 26.51,21 29.32,21 C31.97,21 34.23,23.4 34.23,27.75 C34.23,33.23 31.06,34.42 28.89,34.42 Z M61.89,17.42 C61.7279649,17.2817337 61.5229721,17.2039778 61.31,17.2 C61.08,17.2 57.97,17.2 57.74,17.2 C57.5334298,17.20329 57.3321375,17.2657601 57.16,17.38 C57.0524489,17.4851918 56.9733178,17.6159301 56.93,17.76 C56.93,17.85 56.93,17.91 56.93,18.02 C56.85,18.51 56.68,18.9 56.33,18.94 C56.1241048,18.9548314 55.9246773,18.8645246 55.8,18.7 C54.4293618,17.2712983 52.507602,16.5055117 50.53,16.6 C43.44,16.6 41.73,23.33 41.53,25.76 C41.53,25.76 41.53,26.43 41.53,26.76 C41.53,34.21 45.73,37.43 50.53,37.43 C52.4109538,37.4167068 54.2284889,36.7483913 55.67,35.54 C55.7258207,35.4754589 55.7896729,35.4183281 55.86,35.37 C55.9380894,35.3010571 56.0302088,35.2498797 56.13,35.22 C56.2856106,35.1489682 56.4643894,35.1489682 56.62,35.22 C56.9,35.38 56.95,35.72 56.9,36.22 C56.9,36.22 56.74,38.14 56.69,38.39 C56.4123005,40.4224709 54.737589,41.9757658 52.69,42.1 C50.7253353,42.463794 48.7566581,41.4855693 47.86,39.7 C47.6733242,39.4378044 47.3718574,39.2814883 47.05,39.28 C46.92,39.28 43.39,39.22 43.13,39.28 C42.8852383,39.311706 42.6608474,39.4328058 42.5,39.62 C42.3377503,39.8504673 42.3002938,40.1463738 42.4,40.41 C43.07,43.15 46.07,45.92 51.55,45.92 L51.66,45.92 C59.96,45.92 62.2,41.18 62.2,36.28 C62.2,36.28 62.2,18.35 62.2,18.04 C62.1782891,17.8158076 62.0663946,17.6100662 61.89,17.47 L61.89,17.42 Z M51.89,33.15 C49.17,33.15 47.19,31.04 47.19,26.53 C47.19,22.79 49.42,20.88 51.85,20.88 C54.03,20.88 56.85,22.76 56.85,26.57 C56.81,30.81 54.79,33.2 51.89,33.2 L51.89,33.15 Z M94.53,9.15 L87.53,9.15 C87.3034009,9.14332985 87.0812596,9.21385089 86.9,9.35 C86.6989215,9.473336 86.5442355,9.6596623 86.46,9.88 L86.22,10.53 C86.08,10.96 80.67,27.67 80.6,27.74 C80.47,28 80.32,28.15 80.16,28.15 C80,28.15 79.64,27.59 79.37,26.75 C79.21,26.32 73.74,10.28 73.66,10.02 C73.59585,9.78438673 73.4551247,9.57681685 73.26,9.43 C72.9648933,9.23276603 72.6146192,9.1346893 72.26,9.15 C71.82,9.15 65.54,9.15 65.48,9.15 C65.4283854,9.13085145 65.3716146,9.13085145 65.32,9.15 C65.0589719,9.1921565 64.825264,9.33597676 64.67,9.55 C64.609655,9.70075673 64.569312,9.85876678 64.55,10.02 C64.5344505,10.2297122 64.5344505,10.4402878 64.55,10.65 L64.55,36.34 C64.5345862,36.6297952 64.5345862,36.9202048 64.55,37.21 C64.5591742,37.4481168 64.6594012,37.6736275 64.83,37.84 C65.0050286,37.9758566 65.2185477,38.0528634 65.44,38.06 L69,38.06 C69.2019677,38.0750713 69.405016,38.0547664 69.6,38 C69.8506166,37.9807323 70.0771072,37.8433528 70.21,37.63 C70.3248327,37.4819111 70.3817198,37.2970281 70.37,37.11 C70.37,36.89 70.37,20.32 70.37,20.11 C70.37,19.9 70.47,19.59 70.7,19.62 C70.7720587,19.6304617 70.8406046,19.65788 70.9,19.7 C70.9581566,19.7408486 71.011793,19.7877804 71.06,19.84 C71.2452847,20.1316523 71.396284,20.4437177 71.51,20.77 C71.51,20.82 77.22,36.96 77.3,37.13 C77.51,37.63 77.84,38.02 78.3,38.02 L82,38.02 C82.364992,37.9851277 82.668945,37.7251679 82.76,37.37 C83.9,34.45 87.76,22.52 88.76,20.08 C88.8510089,19.8692022 88.9686317,19.6709236 89.11,19.49 C89.16,19.49 89.36,19.33 89.44,19.35 C89.52,19.37 89.63,19.42 89.66,19.64 C89.6796241,19.9196562 89.6796241,20.2003438 89.66,20.48 C89.66,20.73 89.66,36.41 89.66,36.41 L89.66,37.1 C89.6482802,37.2870281 89.7051673,37.4719111 89.82,37.62 C90.0399967,37.9060655 90.3904189,38.0605527 90.75,38.03 L94.6,38.03 C94.8214523,38.0228634 95.0349714,37.9458566 95.21,37.81 C95.3817933,37.6461724 95.4762467,37.4173044 95.47,37.18 C95.47,36.9 95.47,10.74 95.47,10.29 C95.5107749,9.92478215 95.3349837,9.56929323 95.02,9.38 C94.8727228,9.29008129 94.7024821,9.24491539 94.53,9.25 L94.53,9.15 Z M164.3,6.66 C165.769077,6.66 166.96,5.46907743 166.96,4 C166.96,2.53092257 165.769077,1.34 164.3,1.34 C162.830923,1.34 161.64,2.53092257 161.64,4 C161.612814,4.72263773 161.881015,5.42519824 162.382839,5.94588752 C162.884662,6.4665768 163.576851,6.7605112 164.3,6.76 L164.3,6.66 Z M164.3,1.76 C165.537118,1.76 166.54,2.76288216 166.54,4 C166.54,5.23711784 165.537118,6.24 164.3,6.24 C163.062882,6.24 162.06,5.23711784 162.06,4 C162.11353,2.80210008 163.100905,1.85880454 164.3,1.86 L164.3,1.76 Z M17.78,33.14 C17.6427153,33.0036495 17.4625677,32.9188742 17.27,32.9 C16.9972487,32.8397245 16.7192625,32.8062322 16.44,32.8 C16.14,32.8 8.14,32.8 7.57,32.8 C7.12268497,32.8557681 6.68311645,32.6495987 6.44,32.27 C6.3825932,32.1194381 6.34885978,31.960891 6.34,31.8 C6.34,31.63 6.34,31.45 6.34,31.26 L6.34,30.85 C6.33075846,30.6767898 6.33075846,30.5032102 6.34,30.33 C6.34,30.13 6.34,29.85 6.34,29.64 L6.34,10.32 C6.3512659,10.0554662 6.28148806,9.79379936 6.14,9.57 C5.98996176,9.37512608 5.75585967,9.2636489 5.51,9.27 C5.22,9.27 1.06,9.27 0.87,9.27 C0.608971887,9.3121565 0.375263964,9.45597676 0.22,9.67 C0.133581999,9.84797339 0.0858668704,10.0422421 0.08,10.24 C0.08,10.48 0.08,36.73 0.08,36.99 C0.0758768117,37.2105479 0.131139885,37.4281463 0.24,37.62 C0.383472921,37.8335984 0.614138549,37.97273 0.87,38 C1.15,38 16.73,38.06 17.01,38.06 C17.2224244,38.0769846 17.4342383,38.0205008 17.61,37.9 C17.7901127,37.7962555 17.9334219,37.6389649 18.02,37.45 C18.0425435,37.3001205 18.0357509,37.1472886 18,37 C18,36.81 18,34 18,33.76 C18.0046546,33.5334318 17.9264227,33.3129601 17.78,33.14 Z M107.4,16.66 C99.96,16.88 97.09,23.35 97.09,27.66 C97.09,30.21 98.09,38.66 107.83,38.66 C114.92,38.66 116.83,33.46 117.08,32.78 C117.142939,32.6283433 117.163671,32.4624829 117.14,32.3 C117.152397,32.2372733 117.152397,32.1727267 117.14,32.11 C117.121929,31.8841762 116.945336,31.7033787 116.72,31.68 L113.31,31.68 C112.962907,31.711412 112.644327,31.8851831 112.43,32.16 C112.34,32.26 112.23,32.41 112.14,32.52 C111.171049,33.7339417 109.692965,34.4286414 108.14,34.4 C104.22,34.4 103.08,31.78 102.94,30.4 C102.94,30.3 102.94,30.2 102.94,30.1 C102.907952,29.6674879 103.15835,29.2636194 103.56,29.1 C103.699716,29.0412734 103.848626,29.0074304 104,29 C104.18,29 115.88,29 116.19,29 C116.459774,29.0156345 116.730226,29.0156345 117,29 C117.211259,28.9741989 117.413424,28.8988151 117.59,28.78 C117.749335,28.6469769 117.849917,28.4565901 117.87,28.25 C117.915077,27.9186457 117.935134,27.584367 117.93,27.25 C118,23.09 115.06,16.43 107.4,16.66 Z M111.82,25.08 C111.614518,25.3217238 111.306523,25.4516012 110.99,25.43 L104.2,25.43 C103.889473,25.4452469 103.580957,25.372451 103.31,25.22 C103.180395,25.1200882 103.088691,24.9790061 103.05,24.82 C103.019869,24.6513351 103.019869,24.4786649 103.05,24.31 C103.60122,22.1846136 105.566735,20.7365588 107.76,20.84 C109.697007,20.8978319 111.37275,22.2052354 111.9,24.07 C112.04637,24.3984433 112.016251,24.7786949 111.82,25.08 Z M143.33,0 C130.075166,0 119.33,10.745166 119.33,24 C119.33,37.254834 130.075166,48 143.33,48 C156.584834,48 167.33,37.254834 167.33,24 C167.33,17.6348042 164.801436,11.5303103 160.300563,7.02943725 C155.79969,2.52856417 149.695196,0 143.33,0 Z M135.09,37.94 C134.900255,38.2014109 134.602573,38.3631146 134.28,38.38 C133.88,38.38 130.14,38.38 129.88,38.38 C129.654729,38.3605275 129.439669,38.2772782 129.26,38.14 C129.107817,37.9730309 129.02239,37.7559038 129.02,37.53 C128.987504,37.24782 128.970811,36.9640438 128.97,36.68 C128.97,36.68 128.97,11.68 128.97,11.13 C128.924549,10.7536845 128.986973,10.3722009 129.15,10.03 C129.321831,9.78680646 129.593104,9.63284107 129.89,9.61 C129.96,9.61 134.14,9.61 134.41,9.61 C134.649951,9.60516434 134.877346,9.7169978 135.02,9.91 C135.162472,10.1268973 135.2389,10.3804974 135.24,10.64 C135.24,10.94 135.24,36.57 135.24,37 C135.271466,37.3210129 135.21981,37.6447225 135.09,37.94 Z M158.8,37.39 C158.843486,37.7947394 158.597249,38.1745288 158.21,38.3 C156.787782,38.379696 155.362218,38.379696 153.94,38.3 C153.706109,38.2699186 153.495634,38.1429078 153.36,37.95 C153.24366,37.7634491 153.178157,37.5497037 153.17,37.33 C153.17,37.07 153.17,27.63 153.17,27.63 C153.17,26.63 153.17,25.71 153.05,24.86 C153.051735,23.8915364 152.653247,22.9653915 151.948845,22.3007542 C151.244443,21.6361169 150.29673,21.2920561 149.33,21.35 C147.261345,21.2885898 145.487437,22.8152791 145.24,24.87 C145.068276,26.1963353 144.98476,27.5326045 144.99,28.87 L144.99,37.13 C144.998001,37.3399 144.956912,37.5487713 144.87,37.74 C144.758409,38.0163337 144.513141,38.2163212 144.22,38.27 C143.81,38.37 140.51,38.34 140.22,38.27 C139.972428,38.2679495 139.736899,38.1628674 139.57,37.98 C139.371512,37.686214 139.279744,37.3332593 139.31,36.98 C139.31,36.52 139.31,18.64 139.31,18.4 C139.316375,18.1766834 139.397346,17.9619329 139.54,17.79 C139.7,17.57 140.06,17.47 140.69,17.47 L142.99,17.47 C143.64,17.47 144.44,17.47 144.54,18.09 C144.54,18.24 144.71,19.48 145.24,19.49 C145.397012,19.4884643 145.544564,19.4146883 145.64,19.29 C146.084661,18.8109278 146.577232,18.3786712 147.11,18 C149.61349,16.6959629 152.562429,16.5534491 155.18,17.61 C156.238831,18.0931772 157.127469,18.8842397 157.73,19.88 C158.471643,21.3162465 158.846119,22.9137835 158.82,24.53 C158.82,25 158.81,36.92 158.8,37.39 Z" id="LMI-logo" fill-rule="nonzero"></path>
                </g>
            </g>
        </g>
    </g>
</svg>